<svg width="256" height="231" viewBox="0 0 256 231" fill="none" xmlns="http://www.w3.org/2000/svg">
<g clip-path="url(#clip0_83_3)">
<path d="M244.253 199.4L232.632 158.388C237.878 146.929 240.537 134.683 240.537 121.974C240.537 78.7651 208.497 41.648 165.89 35.3056C150.919 23.3888 131.99 16.2427 111.412 16.2427C63.084 16.2427 23.7662 55.5605 23.7662 103.889C23.7662 116.6 26.4248 128.846 31.6714 140.304L20.0491 181.317C19.273 184.061 20.1172 186.938 22.2543 188.826C24.3922 190.717 27.3533 191.204 29.9795 190.09L62.2561 176.46C73.1671 183.868 85.4453 188.649 98.363 190.573C113.802 202.853 133.124 209.619 152.891 209.619C170.555 209.619 187.513 204.413 202.047 194.544L234.322 208.174C236.948 209.28 239.907 208.799 242.048 206.911C244.185 205.024 245.03 202.146 244.253 199.4V199.4ZM62.613 169.975C62.2126 169.975 61.8109 170.054 61.4312 170.214L27.615 184.494C27.1264 184.702 26.6746 184.628 26.2773 184.275C25.8778 183.922 25.7492 183.483 25.8936 182.973L37.8241 140.873C38.0238 140.166 37.9615 139.41 37.6463 138.745C32.4669 127.807 29.8407 116.079 29.8407 103.889C29.8407 58.9101 66.4337 22.3172 111.412 22.3172C156.39 22.3172 192.983 58.9101 192.983 103.889C192.983 148.867 156.391 185.46 111.412 185.46C94.4423 185.46 78.1744 180.299 64.3673 170.533C63.8462 170.164 63.232 169.975 62.613 169.975V169.975ZM238.026 202.359C237.627 202.711 237.176 202.783 236.686 202.578L202.871 188.298C201.904 187.891 200.794 188.009 199.935 188.616C186.128 198.382 169.861 203.544 152.89 203.544C137.821 203.544 123.027 199.322 110.27 191.514C110.651 191.519 111.03 191.535 111.412 191.535C159.74 191.535 199.058 152.217 199.058 103.889C199.058 80.4377 189.782 59.1252 174.729 43.3803C209.425 53.0358 234.461 85.1236 234.461 121.974C234.461 134.164 231.835 145.89 226.656 156.829C226.34 157.494 226.278 158.25 226.478 158.957L238.406 201.056C238.553 201.568 238.424 202.007 238.026 202.359V202.359ZM75.6651 90.4532C68.2959 90.4532 62.2995 96.4491 62.2995 103.819C62.2995 111.188 68.2955 117.184 75.6651 117.184C83.0347 117.184 89.0306 111.188 89.0306 103.819C89.0306 96.4491 83.0342 90.4532 75.6651 90.4532ZM75.6651 111.109C71.6447 111.109 68.3749 107.839 68.3749 103.819C68.3749 99.7983 71.6447 96.5286 75.6651 96.5286C79.6855 96.5286 82.9552 99.7983 82.9552 103.819C82.9552 107.839 79.6855 111.109 75.6651 111.109ZM122.776 103.819C122.776 96.4496 116.78 90.4532 109.411 90.4532C102.041 90.4532 96.0451 96.4491 96.0451 103.819C96.0451 111.188 102.041 117.184 109.411 117.184C116.78 117.184 122.776 111.188 122.776 103.819ZM109.411 111.109C105.391 111.109 102.121 107.839 102.121 103.819C102.121 99.7983 105.391 96.5286 109.411 96.5286C113.431 96.5286 116.701 99.7983 116.701 103.819C116.701 107.839 113.431 111.109 109.411 111.109ZM143.156 117.184C150.525 117.184 156.522 111.188 156.522 103.818C156.522 96.4487 150.526 90.4527 143.156 90.4527C135.787 90.4527 129.791 96.4487 129.791 103.818C129.791 111.188 135.787 117.184 143.156 117.184ZM143.156 96.5281C147.177 96.5281 150.446 99.7979 150.446 103.818C150.446 107.839 147.177 111.108 143.156 111.108C139.136 111.108 135.866 107.839 135.866 103.818C135.866 99.7983 139.136 96.5281 143.156 96.5281Z" fill="white"/>
</g>
<g filter="url(#filter0_b_83_3)">
<path d="M0 1H256V231H0V1Z" fill="black" fill-opacity="0.3"/>
</g>
<defs>
<filter id="filter0_b_83_3" x="-10" y="-9" width="276" height="250" filterUnits="userSpaceOnUse" color-interpolation-filters="sRGB">
<feFlood flood-opacity="0" result="BackgroundImageFix"/>
<feGaussianBlur in="BackgroundImage" stdDeviation="5"/>
<feComposite in2="SourceAlpha" operator="in" result="effect1_backgroundBlur_83_3"/>
<feBlend mode="normal" in="SourceGraphic" in2="effect1_backgroundBlur_83_3" result="shape"/>
</filter>
<clipPath id="clip0_83_3">
<rect width="224.771" height="224.771" fill="white" transform="translate(19.7655 0.545166)"/>
</clipPath>
</defs>
</svg>
