<svg width="35" height="29" viewBox="0 0 35 29" fill="none" xmlns="http://www.w3.org/2000/svg">
<path d="M33.9062 2.20019H1.09375C0.803669 2.20019 0.52547 2.08429 0.320352 1.87798C0.115234 1.67167 0 1.39186 0 1.10009C0 0.808331 0.115234 0.528518 0.320352 0.32221C0.52547 0.115903 0.803669 0 1.09375 0H33.9062C34.1963 0 34.4745 0.115903 34.6796 0.32221C34.8848 0.528518 35 0.808331 35 1.10009C35 1.39186 34.8848 1.67167 34.6796 1.87798C34.4745 2.08429 34.1963 2.20019 33.9062 2.20019Z" fill="white"/>
<path d="M34.1562 15.3987H8.84375C8.61997 15.3987 8.40536 15.2828 8.24713 15.0765C8.08889 14.8702 8 14.5903 8 14.2986C8 14.0068 8.08889 13.727 8.24713 13.5207C8.40536 13.3144 8.61997 13.1985 8.84375 13.1985H34.1562C34.38 13.1985 34.5946 13.3144 34.7529 13.5207C34.9111 13.727 35 14.0068 35 14.2986C35 14.5903 34.9111 14.8702 34.7529 15.0765C34.5946 15.2828 34.38 15.3987 34.1562 15.3987Z" fill="white"/>
<path d="M34.4688 28.5974H18.5312C18.3904 28.5974 18.2552 28.4815 18.1556 28.2752C18.056 28.0689 18 27.7891 18 27.4973C18 27.2055 18.056 26.9257 18.1556 26.7194C18.2552 26.5131 18.3904 26.3972 18.5312 26.3972H34.4688C34.6096 26.3972 34.7448 26.5131 34.8444 26.7194C34.944 26.9257 35 27.2055 35 27.4973C35 27.7891 34.944 28.0689 34.8444 28.2752C34.7448 28.4815 34.6096 28.5974 34.4688 28.5974Z" fill="white"/>
</svg>
