<svg width="198" height="91" fill="none" xmlns="http://www.w3.org/2000/svg"><path d="m11.856 39.56-.528-10.656L25.776 13.4H36.24L21.84 29l-5.28 5.52-4.704 5.04ZM3.36 47V13.4h9.408V47H3.36Zm22.56 0L14.976 33.128l6.192-6.624L36.96 47H25.92Zm13.534 0V13.4h9.504v26.064H64.99V47H39.454ZM15.168 86.228c-2.752 0-5.408-.337-7.968-1.008-2.528-.704-4.592-1.6-6.192-2.689l3.12-7.008c1.504.96 3.232 1.76 5.184 2.4 1.984.608 3.952.912 5.904.912 1.312 0 2.368-.111 3.168-.335.8-.257 1.376-.576 1.728-.96a2.06 2.06 0 0 0 .576-1.44c0-.768-.352-1.376-1.056-1.825-.704-.448-1.616-.816-2.736-1.104a85.302 85.302 0 0 0-3.744-.864 40.784 40.784 0 0 1-4.08-1.103 17.037 17.037 0 0 1-3.696-1.728 8.897 8.897 0 0 1-2.736-2.832c-.704-1.184-1.056-2.673-1.056-4.465 0-2.016.544-3.84 1.632-5.471 1.12-1.633 2.784-2.944 4.992-3.936s4.96-1.489 8.256-1.489c2.208 0 4.368.256 6.48.768 2.144.48 4.048 1.2 5.712 2.16l-2.928 7.056c-1.6-.864-3.184-1.504-4.752-1.92-1.568-.447-3.088-.672-4.56-.672-1.312 0-2.368.145-3.168.433-.8.256-1.376.608-1.728 1.056-.352.447-.528.96-.528 1.535 0 .736.336 1.329 1.008 1.776.704.416 1.616.768 2.736 1.056 1.152.256 2.4.528 3.744.816 1.376.288 2.736.657 4.08 1.105 1.376.416 2.624.992 3.744 1.728a7.876 7.876 0 0 1 2.688 2.831c.704 1.153 1.056 2.609 1.056 4.368 0 1.953-.56 3.76-1.68 5.424-1.088 1.633-2.736 2.945-4.944 3.937-2.176.992-4.928 1.488-8.256 1.488Zm25.953-.672V59.491h-10.32v-7.536h30.096v7.535H50.625v26.064h-9.504Zm38.306.672c-4.96 0-8.833-1.36-11.617-4.08-2.784-2.72-4.175-6.576-4.175-11.569V51.956h9.503V70.29c0 2.88.56 4.945 1.68 6.193 1.153 1.248 2.72 1.872 4.704 1.872 1.984 0 3.536-.624 4.656-1.872 1.12-1.248 1.68-3.313 1.68-6.192V51.954h9.36V70.58c0 4.993-1.392 8.849-4.175 11.569-2.785 2.72-6.657 4.08-11.617 4.08Zm22.23-.672v-33.6h15.888c3.712 0 6.976.688 9.792 2.063 2.816 1.377 5.008 3.313 6.576 5.809 1.6 2.495 2.4 5.471 2.4 8.927 0 3.425-.8 6.4-2.4 8.928-1.568 2.496-3.76 4.432-6.576 5.808-2.816 1.377-6.08 2.064-9.792 2.064h-15.888Zm9.504-7.584h6c1.92 0 3.584-.352 4.992-1.056a8.027 8.027 0 0 0 3.36-3.168c.8-1.409 1.2-3.073 1.2-4.993 0-1.951-.4-3.615-1.2-4.991a7.726 7.726 0 0 0-3.36-3.12c-1.408-.736-3.072-1.105-4.992-1.105h-6v18.433Zm30.152 7.584v-33.6h9.504v33.6h-9.504Zm33.21.672c-2.688 0-5.168-.432-7.44-1.296-2.272-.865-4.256-2.08-5.952-3.648a17.315 17.315 0 0 1-3.888-5.569c-.928-2.112-1.392-4.431-1.392-6.96 0-2.527.464-4.847 1.392-6.96a16.779 16.779 0 0 1 3.888-5.52c1.696-1.6 3.68-2.831 5.952-3.695 2.272-.864 4.752-1.297 7.44-1.297 2.72 0 5.2.432 7.44 1.297 2.272.864 4.24 2.096 5.904 3.696a16.779 16.779 0 0 1 3.888 5.52c.96 2.111 1.44 4.432 1.44 6.96 0 2.528-.48 4.864-1.44 7.007a16.779 16.779 0 0 1-3.888 5.52c-1.664 1.569-3.632 2.784-5.904 3.648-2.24.865-4.72 1.297-7.44 1.297Zm0-7.872c1.28 0 2.464-.224 3.552-.672a8.127 8.127 0 0 0 2.88-1.92 8.924 8.924 0 0 0 1.92-3.072c.48-1.184.72-2.496.72-3.936 0-1.472-.24-2.784-.72-3.936-.448-1.184-1.088-2.192-1.92-3.024a7.838 7.838 0 0 0-2.88-1.968c-1.088-.449-2.272-.672-3.552-.672-1.28 0-2.48.224-3.6.672a8.404 8.404 0 0 0-2.88 1.967c-.8.832-1.44 1.84-1.92 3.025-.448 1.152-.672 2.464-.672 3.936 0 1.44.224 2.751.672 3.936.48 1.184 1.12 2.208 1.92 3.072a8.74 8.74 0 0 0 2.88 1.92c1.12.448 2.32.672 3.6.672Z" fill="#fff"/><path d="M70.052 46.667v-12.6h1.332v12.6h-1.332Zm7.88 0V35.219h-4.428v-1.152h10.188v1.152h-4.428v11.448h-1.332Zm6.335-4.32V41.23h4.717v1.116h-4.716Zm12.454 4.41c-.817 0-1.555-.186-2.215-.558a4.247 4.247 0 0 1-1.584-1.638c-.383-.72-.575-1.596-.575-2.628s.192-1.902.576-2.61c.383-.72.906-1.266 1.566-1.638.66-.372 1.403-.558 2.231-.558.9 0 1.704.204 2.412.612.72.396 1.285.96 1.693 1.692.408.72.612 1.554.612 2.502 0 .96-.204 1.8-.612 2.52a4.41 4.41 0 0 1-1.693 1.692c-.708.408-1.511.612-2.412.612Zm-4.879 3.402V37.217h1.225v2.844l-.126 1.89.18 1.908v6.3h-1.278Zm4.788-4.536c.672 0 1.273-.15 1.8-.45a3.44 3.44 0 0 0 1.26-1.296c.313-.564.469-1.212.469-1.944s-.156-1.374-.469-1.926a3.44 3.44 0 0 0-1.26-1.296c-.528-.312-1.128-.468-1.8-.468-.671 0-1.277.156-1.817.468a3.44 3.44 0 0 0-1.26 1.296c-.3.552-.45 1.194-.45 1.926s.15 1.38.45 1.944a3.44 3.44 0 0 0 1.26 1.296c.54.3 1.145.45 1.817.45Zm7.412 1.044v-9.45h1.224v2.574l-.126-.45c.264-.72.708-1.266 1.332-1.638.624-.384 1.398-.576 2.322-.576v1.242h-.144a.592.592 0 0 0-.144-.018c-.996 0-1.776.306-2.34.918-.564.6-.846 1.458-.846 2.574v4.824h-1.278Zm10.848.09c-.912 0-1.734-.204-2.466-.612-.72-.42-1.29-.99-1.71-1.71-.42-.732-.63-1.566-.63-2.502 0-.948.21-1.782.63-2.502.42-.72.99-1.284 1.71-1.692.72-.408 1.542-.612 2.466-.612.936 0 1.764.204 2.484.612a4.374 4.374 0 0 1 1.71 1.692c.42.72.63 1.554.63 2.502 0 .936-.21 1.77-.63 2.502a4.5 4.5 0 0 1-1.71 1.71c-.732.408-1.56.612-2.484.612Zm0-1.134c.684 0 1.29-.15 1.818-.45a3.31 3.31 0 0 0 1.242-1.296c.312-.564.468-1.212.468-1.944 0-.744-.156-1.392-.468-1.944a3.185 3.185 0 0 0-1.242-1.278c-.528-.312-1.128-.468-1.8-.468-.672 0-1.272.156-1.8.468-.528.3-.948.726-1.26 1.278-.312.552-.468 1.2-.468 1.944 0 .732.156 1.38.468 1.944a3.44 3.44 0 0 0 1.26 1.296c.528.3 1.122.45 1.782.45Zm11.195 1.134c-.9 0-1.71-.204-2.43-.612a4.445 4.445 0 0 1-1.674-1.692c-.408-.732-.612-1.572-.612-2.52 0-.96.204-1.8.612-2.52a4.317 4.317 0 0 1 1.674-1.674c.72-.408 1.53-.612 2.43-.612.828 0 1.566.186 2.214.558.66.372 1.182.918 1.566 1.638.396.708.594 1.578.594 2.61 0 1.02-.192 1.89-.576 2.61-.384.72-.906 1.272-1.566 1.656-.648.372-1.392.558-2.232.558Zm.09-1.134c.672 0 1.272-.15 1.8-.45.54-.312.96-.744 1.26-1.296.312-.564.468-1.212.468-1.944 0-.744-.156-1.392-.468-1.944-.3-.552-.72-.978-1.26-1.278-.528-.312-1.128-.468-1.8-.468-.66 0-1.254.156-1.782.468-.528.3-.948.726-1.26 1.278-.312.552-.468 1.2-.468 1.944 0 .732.156 1.38.468 1.944a3.44 3.44 0 0 0 1.26 1.296c.528.3 1.122.45 1.782.45Zm3.564 1.044v-2.844l.126-1.908-.18-1.908V33.31h1.278v13.356h-1.224Zm8.689.09c-.804 0-1.506-.15-2.106-.45-.6-.3-1.068-.75-1.404-1.35-.324-.6-.486-1.35-.486-2.25v-5.49h1.278v5.346c0 1.008.246 1.77.738 2.286.504.504 1.206.756 2.106.756.66 0 1.23-.132 1.71-.396a2.674 2.674 0 0 0 1.116-1.188c.264-.516.396-1.134.396-1.854v-4.95h1.278v9.45h-1.224v-2.592l.198.468a3.53 3.53 0 0 1-1.404 1.638c-.624.384-1.356.576-2.196.576Zm12.112 0c-.936 0-1.776-.204-2.52-.612a4.634 4.634 0 0 1-1.728-1.71c-.42-.732-.63-1.566-.63-2.502 0-.948.21-1.782.63-2.502.42-.72.996-1.284 1.728-1.692.744-.408 1.584-.612 2.52-.612.804 0 1.53.156 2.178.468a3.53 3.53 0 0 1 1.53 1.404l-.954.648a2.999 2.999 0 0 0-1.206-1.062 3.603 3.603 0 0 0-1.566-.342c-.672 0-1.278.156-1.818.468-.54.3-.966.726-1.278 1.278-.312.552-.468 1.2-.468 1.944s.156 1.392.468 1.944a3.4 3.4 0 0 0 1.278 1.296c.54.3 1.146.45 1.818.45.564 0 1.086-.114 1.566-.342.48-.228.882-.576 1.206-1.044l.954.648a3.679 3.679 0 0 1-1.53 1.404c-.648.312-1.374.468-2.178.468Zm9.312 0c-.888 0-1.572-.24-2.052-.72s-.72-1.158-.72-2.034v-8.874h1.278v8.802c0 .552.138.978.414 1.278.288.3.696.45 1.224.45.564 0 1.032-.162 1.404-.486l.45.918a2.354 2.354 0 0 1-.918.504 3.623 3.623 0 0 1-1.08.162Zm-4.464-8.478v-1.062h5.85v1.062h-5.85Zm11.327 8.478c-.78 0-1.518-.108-2.214-.324-.696-.228-1.242-.51-1.638-.846l.576-1.008c.384.288.876.54 1.476.756.6.204 1.23.306 1.89.306.9 0 1.548-.138 1.944-.414.396-.288.594-.666.594-1.134 0-.348-.114-.618-.342-.81-.216-.204-.504-.354-.864-.45a9.51 9.51 0 0 0-1.206-.27 25.981 25.981 0 0 1-1.332-.252 5.138 5.138 0 0 1-1.188-.414 2.499 2.499 0 0 1-.882-.774c-.216-.324-.324-.756-.324-1.296 0-.516.144-.978.432-1.386.288-.408.708-.726 1.26-.954.564-.24 1.248-.36 2.052-.36.612 0 1.224.084 1.836.252.612.156 1.116.366 1.512.63l-.558 1.026a4.152 4.152 0 0 0-1.35-.612 5.41 5.41 0 0 0-1.44-.198c-.852 0-1.482.15-1.89.45-.396.288-.594.66-.594 1.116 0 .36.108.642.324.846.228.204.522.366.882.486.372.108.774.198 1.206.27.444.072.882.162 1.314.27.444.096.846.234 1.206.414.372.168.666.414.882.738.228.312.342.726.342 1.242 0 .552-.156 1.032-.468 1.44-.3.396-.744.708-1.332.936-.576.216-1.278.324-2.106.324Z" fill="#FE0034"/></svg>