<svg width="30" height="30" viewBox="0 0 30 30" fill="none" xmlns="http://www.w3.org/2000/svg">
<path d="M29.5485 20.9795C27.9273 20.0173 26.5467 19.0524 25.5394 18.3484C24.77 17.8115 24.2141 17.4238 23.8066 17.2051C22.6676 16.5978 21.8043 17.0268 21.4758 17.3816C21.4345 17.4257 21.3976 17.4736 21.366 17.5242C20.1831 19.4213 18.6383 21.2357 18.186 21.3333C17.6634 21.246 15.2176 19.7601 12.7866 17.5965C10.3048 15.386 8.74328 13.2693 8.51407 11.8275C10.1063 10.076 10.6798 8.97398 10.6798 7.71993C10.6798 6.42739 7.85891 1.03102 7.34866 0.485663C6.83665 -0.0606385 5.68354 -0.146056 3.92094 0.229408C3.75144 0.266016 3.59512 0.355189 3.47217 0.485663C3.25876 0.713757 -1.73484 6.15518 0.638129 12.7502C3.24295 19.9882 9.92889 28.4015 18.453 29.7681C19.4216 29.923 20.3297 30 21.1799 30C26.1945 30 29.1541 27.3032 29.9876 21.9538C30.0499 21.5624 29.8734 21.1719 29.5485 20.9795ZM18.7138 27.9115C9.69967 26.4669 4.02194 16.9216 2.27778 12.0763C0.547672 7.27031 3.73827 2.98532 4.53921 2.01662C5.19086 1.89835 5.87675 1.8486 6.16305 1.89647C6.76113 2.78538 8.83198 6.96712 8.92332 7.71993C8.92332 8.21272 8.77314 8.89888 6.98507 10.8109C6.81997 10.9865 6.72775 11.2249 6.72775 11.4746C6.72775 16.3894 16.4269 23.2078 18.1447 23.2078C19.6386 23.2078 21.5865 20.5242 22.6957 18.7755C22.7598 18.7783 22.8678 18.8018 23.0215 18.8844C23.3377 19.0543 23.8857 19.4363 24.5786 19.9206C25.4937 20.5599 26.7092 21.4084 28.1442 22.288C27.4925 25.639 25.6711 29.0285 18.7138 27.9115Z" fill="white"/>
</svg>
