<svg width="30" height="30" viewBox="0 0 30 30" fill="none" xmlns="http://www.w3.org/2000/svg">
<path d="M29.4126 0.547941C28.9299 0.0383893 28.244 -0.131417 27.6222 0.104691L1.24402 10.1243C0.525131 10.3973 0.0376305 11.1368 0.00206411 12.008C-0.0334437 12.8792 0.391654 13.6681 1.08505 14.0178L7.60859 17.3067C7.64041 17.4769 9.51313 27.4853 9.57682 27.8255C9.65856 28.2625 9.85104 28.6517 10.2588 28.7715C10.6712 28.8925 10.9626 28.6328 11.2704 28.3673C11.4416 28.2196 16.1114 24.1904 16.1114 24.1904L21.7709 29.5268C22.1005 29.8378 22.5034 30 22.9142 30C23.1098 29.9999 23.3073 29.9632 23.4994 29.8881C24.095 29.6554 24.5366 29.0952 24.6805 28.3897L29.952 2.56427C30.1018 1.83002 29.8952 1.05749 29.4126 0.547941ZM11.6921 19.1913C11.6888 19.2001 11.6857 19.21 11.6827 19.2219L10.5914 23.6151L9.37362 17.1068L17.7477 11.7456L11.8929 18.7996C11.8007 18.9108 11.7328 19.0451 11.6921 19.1913ZM12.0384 25.1683L12.534 23.1728L13.0081 21.2642L14.7068 22.8659L12.0384 25.1683ZM28.2368 2.09935L22.9654 27.9248C22.9628 27.9376 22.9593 27.9553 22.9335 27.9654C22.908 27.9754 22.8955 27.964 22.8868 27.9556L16.6939 22.1162L13.8242 19.4101L23.0423 8.3037C23.3434 7.94093 23.3692 7.37912 23.103 6.98178C22.8367 6.58438 22.3584 6.47088 21.9777 6.71475L8.32824 15.4534L1.79134 12.1577C1.77142 12.1477 1.76046 12.1421 1.76205 12.1033C1.76363 12.0646 1.775 12.0602 1.79562 12.0524L28.1738 2.03285C28.1866 2.02805 28.201 2.02252 28.2222 2.0448C28.2435 2.06721 28.2399 2.08423 28.2368 2.09935Z" fill="#FE0034"/>
</svg>
