<svg width="30" height="30" viewBox="0 0 30 30" fill="none" xmlns="http://www.w3.org/2000/svg">
<path d="M15 0C6.72865 0 0 6.72865 0 15C0 17.8217 0.784038 20.561 2.27135 22.9396C1.67885 25.0154 0.608654 28.9419 0.597115 28.9829C0.541731 29.186 0.601154 29.4029 0.752885 29.5488C0.904615 29.6948 1.12385 29.7467 1.32346 29.6856L7.26923 27.8567C9.59827 29.2598 12.2654 30 15 30C23.2713 30 30 23.2713 30 15C30 6.72865 23.2713 0 15 0ZM15 28.8462C12.3929 28.8462 9.85327 28.1175 7.65519 26.7398C7.56231 26.6815 7.45558 26.6521 7.34885 26.6521C7.29173 26.6521 7.23462 26.6608 7.17923 26.6775L1.9875 28.2756C2.36885 26.8835 3.05423 24.3935 3.45173 23.0083C3.49788 22.8479 3.47192 22.6748 3.38135 22.5346C1.92404 20.2921 1.15385 17.6867 1.15385 15C1.15385 7.36558 7.36558 1.15385 15 1.15385C22.6344 1.15385 28.8462 7.36558 28.8462 15C28.8462 22.6344 22.6344 28.8462 15 28.8462Z" fill="#FE0034"/>
<path d="M24.799 18.5344C23.734 17.943 22.8271 17.3499 22.1653 16.9172C21.66 16.5872 21.2948 16.349 21.0271 16.2145C20.2788 15.8413 19.7117 16.1049 19.4959 16.323C19.4688 16.3501 19.4446 16.3795 19.4238 16.4107C18.6467 17.5767 17.6319 18.6919 17.3348 18.7519C16.9915 18.6982 15.3848 17.7849 13.7878 16.4551C12.1575 15.0965 11.1317 13.7955 10.9811 12.9094C12.0271 11.8328 12.4038 11.1555 12.4038 10.3847C12.4038 9.59032 10.5507 6.27358 10.2155 5.93839C9.87918 5.60262 9.12168 5.55012 7.9638 5.78089C7.85245 5.80339 7.74976 5.8582 7.66899 5.93839C7.5288 6.07858 4.24841 9.42301 5.80726 13.4765C7.51841 17.9251 11.9105 23.0961 17.5101 23.9361C18.1465 24.0313 18.743 24.0786 19.3015 24.0786C22.5957 24.0786 24.54 22.4211 25.0875 19.1332C25.1284 18.8926 25.0125 18.6526 24.799 18.5344ZM17.6815 22.7949C11.76 21.907 8.03014 16.0403 6.88438 13.0622C5.74784 10.1084 7.8438 7.47474 8.36995 6.87935C8.79803 6.80666 9.24861 6.77608 9.43668 6.80551C9.82957 7.35185 11.19 9.92205 11.25 10.3847C11.25 10.6876 11.1513 11.1094 9.97668 12.2845C9.86822 12.3924 9.80764 12.539 9.80764 12.6924C9.80764 15.7132 16.1792 19.904 17.3076 19.904C18.289 19.904 19.5686 18.2545 20.2973 17.1797C20.3394 17.1815 20.4103 17.1959 20.5113 17.2467C20.719 17.3511 21.079 17.5859 21.5342 17.8836C22.1353 18.2765 22.9338 18.798 23.8765 19.3386C23.4484 21.3982 22.2519 23.4815 17.6815 22.7949Z" fill="#FE0034"/>
</svg>
