<svg width="75" height="75" fill="none" xmlns="http://www.w3.org/2000/svg"><mask id="a" fill="#fff"><path d="m54.82 39.074 1.84-1.841.002-.002.002-.002 6.494-6.494h.001l.001-.002 6.495-6.495h.001l3.568-3.569A6.024 6.024 0 0 0 75 16.383c0-1.62-.63-3.143-1.776-4.288L62.906 1.776A6.024 6.024 0 0 0 58.618 0c-1.62 0-3.142.63-4.287 1.776L35.926 20.18 23.434 7.688a16.412 16.412 0 0 0-7.58-4.305L2.737.067A2.197 2.197 0 0 0 .067 2.736l3.317 13.119a16.412 16.412 0 0 0 4.304 7.58L20.18 35.925 1.776 54.33A6.024 6.024 0 0 0 0 58.618c0 1.62.63 3.143 1.776 4.288l10.318 10.318A6.024 6.024 0 0 0 16.382 75c1.62 0 3.142-.63 4.287-1.776l10.06-10.06.005-.005a.102.102 0 0 0 .005-.004l8.335-8.335 16.919 16.919a11.1 11.1 0 0 0 7.873 3.256 11.1 11.1 0 0 0 7.873-3.256c4.341-4.341 4.341-11.405 0-15.746l-16.92-16.92ZM7.644 14.778 5.23 5.23l9.548 2.413c2.099.53 4.018 1.62 5.549 3.152l1.732 1.732-9.531 9.531-1.733-1.732a12.017 12.017 0 0 1-3.151-5.55Zm7.991 10.389 9.531-9.532 7.653 7.653-9.532 9.531-7.652-7.652Zm.747 45.439c-.446 0-.865-.174-1.18-.49L4.883 59.8a1.658 1.658 0 0 1-.488-1.18c0-.447.173-.866.489-1.181L57.438 4.883a1.66 1.66 0 0 1 1.18-.488c.446 0 .865.173 1.18.488l10.319 10.319c.315.315.489.734.489 1.18 0 .446-.174.865-.49 1.18l-2.014 2.015-6.702-6.703a2.197 2.197 0 0 0-3.108 3.107l6.703 6.703-3.39 3.39-3.454-3.455a2.197 2.197 0 1 0-3.107 3.108l3.454 3.454-3.39 3.39-6.702-6.704a2.197 2.197 0 1 0-3.107 3.108l6.703 6.702-3.39 3.39-3.454-3.455a2.197 2.197 0 0 0-3.108 3.108l3.455 3.454-3.331 3.33-6.703-6.702a2.197 2.197 0 1 0-3.107 3.107l6.703 6.703-3.39 3.39-3.454-3.455a2.197 2.197 0 0 0-3.107 3.108l3.454 3.454-3.39 3.39-6.702-6.703a2.197 2.197 0 0 0-3.107 3.107l6.702 6.703-3.39 3.389-3.453-3.454a2.197 2.197 0 0 0-3.108 3.107l3.454 3.454-2.014 2.014a1.658 1.658 0 0 1-1.18.49Zm27.337-20.431a.382.382 0 0 0 .018-.018l6.426-6.427.003-.002.002-.003 1.544-1.544 9.311 9.31-9.531 9.532-9.31-9.31 1.537-1.538ZM68.63 68.63a6.747 6.747 0 0 1-9.531 0l-4.5-4.5 9.53-9.532 4.502 4.5a6.747 6.747 0 0 1 0 9.532Z"/></mask><path d="m54.82 39.074 1.84-1.841.002-.002.002-.002 6.494-6.494h.001l.001-.002 6.495-6.495h.001l3.568-3.569A6.024 6.024 0 0 0 75 16.383c0-1.62-.63-3.143-1.776-4.288L62.906 1.776A6.024 6.024 0 0 0 58.618 0c-1.62 0-3.142.63-4.287 1.776L35.926 20.18 23.434 7.688a16.412 16.412 0 0 0-7.58-4.305L2.737.067A2.197 2.197 0 0 0 .067 2.736l3.317 13.119a16.412 16.412 0 0 0 4.304 7.58L20.18 35.925 1.776 54.33A6.024 6.024 0 0 0 0 58.618c0 1.62.63 3.143 1.776 4.288l10.318 10.318A6.024 6.024 0 0 0 16.382 75c1.62 0 3.142-.63 4.287-1.776l10.06-10.06.005-.005a.102.102 0 0 0 .005-.004l8.335-8.335 16.919 16.919a11.1 11.1 0 0 0 7.873 3.256 11.1 11.1 0 0 0 7.873-3.256c4.341-4.341 4.341-11.405 0-15.746l-16.92-16.92ZM7.644 14.778 5.23 5.23l9.548 2.413c2.099.53 4.018 1.62 5.549 3.152l1.732 1.732-9.531 9.531-1.733-1.732a12.017 12.017 0 0 1-3.151-5.55Zm7.991 10.389 9.531-9.532 7.653 7.653-9.532 9.531-7.652-7.652Zm.747 45.439c-.446 0-.865-.174-1.18-.49L4.883 59.8a1.658 1.658 0 0 1-.488-1.18c0-.447.173-.866.489-1.181L57.438 4.883a1.66 1.66 0 0 1 1.18-.488c.446 0 .865.173 1.18.488l10.319 10.319c.315.315.489.734.489 1.18 0 .446-.174.865-.49 1.18l-2.014 2.015-6.702-6.703a2.197 2.197 0 0 0-3.108 3.107l6.703 6.703-3.39 3.39-3.454-3.455a2.197 2.197 0 1 0-3.107 3.108l3.454 3.454-3.39 3.39-6.702-6.704a2.197 2.197 0 1 0-3.107 3.108l6.703 6.702-3.39 3.39-3.454-3.455a2.197 2.197 0 0 0-3.108 3.108l3.455 3.454-3.331 3.33-6.703-6.702a2.197 2.197 0 1 0-3.107 3.107l6.703 6.703-3.39 3.39-3.454-3.455a2.197 2.197 0 0 0-3.107 3.108l3.454 3.454-3.39 3.39-6.702-6.703a2.197 2.197 0 0 0-3.107 3.107l6.702 6.703-3.39 3.389-3.453-3.454a2.197 2.197 0 0 0-3.108 3.107l3.454 3.454-2.014 2.014a1.658 1.658 0 0 1-1.18.49Zm27.337-20.431a.382.382 0 0 0 .018-.018l6.426-6.427.003-.002.002-.003 1.544-1.544 9.311 9.31-9.531 9.532-9.31-9.31 1.537-1.538ZM68.63 68.63a6.747 6.747 0 0 1-9.531 0l-4.5-4.5 9.53-9.532 4.502 4.5a6.747 6.747 0 0 1 0 9.532Z" fill="#fff" stroke="#000" stroke-width="2" mask="url(#a)"/></svg>