<svg width="75" height="75" fill="none" xmlns="http://www.w3.org/2000/svg"><g clip-path="url(#a)" fill="#fff"><path d="M37.5 20.12c3.903 0 7.59 1.264 10.663 3.656a1.098 1.098 0 1 0 1.349-1.734A19.383 19.383 0 0 0 37.5 17.923c-10.794 0-19.576 8.782-19.576 19.577 0 9.408 6.67 17.285 15.529 19.155a19.656 19.656 0 0 0 8.094 0c8.86-1.87 15.53-9.747 15.53-19.155 0-4.192-1.308-8.19-3.78-11.564a1.098 1.098 0 1 0-1.773 1.3A17.242 17.242 0 0 1 54.88 37.5c0 7.89-5.286 14.568-12.502 16.681V43.529a11.04 11.04 0 0 0 2.851-2.033c5.075-5.005 4.16-13.506-2.029-17.258a1.923 1.923 0 0 0-2.92 1.642v6.339l-2.85 2.725-2.71-2.71V25.88a1.923 1.923 0 0 0-2.921-1.642c-6.086 3.69-7.204 12.211-1.959 17.304a11.104 11.104 0 0 0 2.783 1.972v3.683a1.099 1.099 0 0 0 2.197 0v-2.865c1.77.446 3.62.438 5.36.006v10.334c-.52.081-1.047.138-1.581.172V48.66a1.099 1.099 0 0 0-2.197 0v6.182a17.506 17.506 0 0 1-1.582-.17v-2.35a1.098 1.098 0 1 0-2.197 0v1.858C25.407 52.069 20.12 45.392 20.12 37.5c0-9.583 7.796-17.38 17.38-17.38Zm-3.252 21.725a1.129 1.129 0 0 0-.223-.091 8.804 8.804 0 0 1-5.328-7.713 8.828 8.828 0 0 1 3.826-7.656v5.98c0 .502.195.973.55 1.328l3.024 3.024c.716.717 1.893.73 2.625.03l3.175-3.035c.369-.353.58-.847.58-1.357v-5.97a8.746 8.746 0 0 1 3.834 7.27c0 3.732-2.292 6.83-5.415 8.136-.035.013-.07.027-.103.044a8.837 8.837 0 0 1-6.545.01Z"/><path d="m72.207 29.22-7.204-.87a.536.536 0 0 1-.44-.362 28.651 28.651 0 0 0-1.208-2.91.512.512 0 0 1 .052-.542l4.49-5.723a3.178 3.178 0 0 0-.254-4.203l-7.252-7.253a3.178 3.178 0 0 0-4.204-.253l-5.723 4.49a.512.512 0 0 1-.542.05 28.651 28.651 0 0 0-2.91-1.208.536.536 0 0 1-.362-.439l-.87-7.204A3.177 3.177 0 0 0 42.629 0H32.37a3.177 3.177 0 0 0-3.15 2.793l-.87 7.203a.536.536 0 0 1-.363.44c-.985.347-1.964.754-2.91 1.209a.512.512 0 0 1-.542-.052l-5.723-4.49a3.176 3.176 0 0 0-4.203.254L12.796 9.17a1.098 1.098 0 1 0 1.554 1.553l1.814-1.813a.977.977 0 0 1 1.293-.078l5.722 4.49c.817.64 1.91.756 2.853.302a26.31 26.31 0 0 1 2.685-1.116 2.722 2.722 0 0 0 1.815-2.249l.87-7.203c.059-.49.476-.86.97-.86h10.257c.493 0 .91.37.97.86l.869 7.203a2.72 2.72 0 0 0 1.815 2.249c.909.32 1.812.695 2.685 1.116a2.697 2.697 0 0 0 2.853-.302l5.722-4.49a.978.978 0 0 1 1.293.078l7.253 7.253c.35.349.383.905.078 1.293l-4.49 5.722a2.697 2.697 0 0 0-.302 2.853c.42.873.796 1.777 1.116 2.685a2.721 2.721 0 0 0 2.249 1.815l7.203.87c.49.059.86.476.86.97v10.257c0 .494-.37.91-.86.97l-7.203.87a2.72 2.72 0 0 0-2.249 1.814c-.32.909-.695 1.812-1.116 2.685a2.697 2.697 0 0 0 .302 2.853l4.49 5.722a.977.977 0 0 1-.078 1.294l-7.253 7.253a.978.978 0 0 1-1.293.077l-5.722-4.49a2.695 2.695 0 0 0-2.853-.301c-.873.42-1.776.796-2.685 1.115a2.722 2.722 0 0 0-1.815 2.25l-.87 7.202a.978.978 0 0 1-.97.86H32.372a.978.978 0 0 1-.97-.86l-.869-7.203a2.722 2.722 0 0 0-1.815-2.249 26.308 26.308 0 0 1-2.685-1.115 2.695 2.695 0 0 0-2.853.302l-5.722 4.489a.978.978 0 0 1-1.293-.078L8.91 58.836a.978.978 0 0 1-.078-1.293l4.49-5.722c.64-.817.755-1.91.302-2.853a26.484 26.484 0 0 1-1.116-2.685 2.721 2.721 0 0 0-2.249-1.815l-7.203-.87a.978.978 0 0 1-.86-.97V32.372c0-.494.37-.91.86-.97l7.203-.87a2.72 2.72 0 0 0 2.249-1.814c.32-.909.695-1.812 1.116-2.685a2.697 2.697 0 0 0-.302-2.853l-4.49-5.722a.978.978 0 0 1 .078-1.293l1.814-1.814a1.1 1.1 0 0 0-1.554-1.554L7.357 14.61a3.175 3.175 0 0 0-.253 4.204l4.49 5.722c.12.152.14.36.05.543a28.689 28.689 0 0 0-1.208 2.908c-.07.2-.238.34-.439.363l-7.204.87A3.177 3.177 0 0 0 0 32.371V42.63a3.177 3.177 0 0 0 2.793 3.15l7.204.87c.2.025.37.164.44.363.346.984.753 1.964 1.208 2.91a.512.512 0 0 1-.051.542l-4.49 5.723a3.175 3.175 0 0 0 .253 4.203l7.253 7.253a3.175 3.175 0 0 0 4.204.252l5.722-4.489c.152-.12.36-.14.543-.05.945.454 1.924.86 2.909 1.208.2.07.338.238.362.439l.87 7.203A3.177 3.177 0 0 0 32.371 75H42.63a3.177 3.177 0 0 0 3.15-2.793l.87-7.204c.025-.2.164-.37.363-.44a28.537 28.537 0 0 0 2.91-1.208.511.511 0 0 1 .542.052l5.723 4.49c1.261.989 3.069.88 4.203-.254l7.253-7.252a3.176 3.176 0 0 0 .252-4.204l-4.489-5.723a.511.511 0 0 1-.05-.542c.454-.946.86-1.925 1.208-2.91.07-.199.238-.338.439-.362l7.203-.87A3.177 3.177 0 0 0 75 42.629V32.37a3.177 3.177 0 0 0-2.793-3.15Z"/></g><defs><clipPath id="a"><path fill="#fff" d="M0 0h75v75H0z"/></clipPath></defs></svg>