<svg width="75" height="75" viewBox="0 0 75 75" fill="none" xmlns="http://www.w3.org/2000/svg">
<path d="M29.5913 52.5589C29.308 52.5589 29.0226 52.4614 28.7898 52.2631L20.7773 45.4406C20.501 45.2049 20.342 44.8608 20.342 44.4974C20.342 44.1346 20.5017 43.7905 20.7773 43.5549L28.7898 36.7323C29.3101 36.2887 30.0916 36.3516 30.5352 36.8719C30.9781 37.3929 30.9159 38.1744 30.3949 38.6173L23.4901 44.4974L30.3949 50.3775C30.9159 50.8211 30.9781 51.6026 30.5352 52.1229C30.2899 52.411 29.9416 52.5589 29.5913 52.5589Z" fill="white"/>
<path d="M45.4087 52.5589C45.0584 52.5589 44.7102 52.411 44.4656 52.1229C44.022 51.6026 44.0849 50.8211 44.6051 50.3775L51.51 44.4974L44.6051 38.6173C44.0849 38.1744 44.022 37.3929 44.4656 36.8719C44.9085 36.3516 45.6907 36.2887 46.2103 36.7323L54.2227 43.5549C54.4991 43.7905 54.658 44.1346 54.658 44.4974C54.658 44.8608 54.4991 45.2049 54.2227 45.4406L46.2103 52.2631C45.9774 52.4614 45.692 52.5589 45.4087 52.5589Z" fill="white"/>
<path d="M34.6636 57.6761C34.5786 57.6761 34.493 57.6672 34.4066 57.6492C33.7377 57.5082 33.3093 56.8511 33.4503 56.1823L38.4439 32.4732C38.5848 31.8044 39.2413 31.376 39.9108 31.5169C40.5797 31.6579 41.0081 32.3143 40.8671 32.9839L35.8735 56.6929C35.7505 57.2761 35.2364 57.6761 34.6636 57.6761Z" fill="white"/>
<path d="M66.6863 70.593H8.31368C3.72982 70.593 0 66.8639 0 62.2794V12.7359C0 8.152 3.72982 4.42217 8.31368 4.42217H66.6863C71.2702 4.42217 75 8.152 75 12.7359V62.2794C75 66.8639 71.2702 70.593 66.6863 70.593ZM8.31368 6.89859C5.09517 6.89859 2.47642 9.51734 2.47642 12.7359V62.2794C2.47642 65.4979 5.09517 68.1166 8.31368 68.1166H66.6863C69.9048 68.1166 72.5236 65.4979 72.5236 62.2794V12.7359C72.5236 9.51734 69.9048 6.89859 66.6863 6.89859H8.31368Z" fill="white"/>
<path d="M73.7618 24.2494H1.23821C0.554153 24.2494 0 23.6952 0 23.0112C0 22.3278 0.554153 21.773 1.23821 21.773H73.7618C74.4458 21.773 75 22.3278 75 23.0112C75 23.6952 74.4458 24.2494 73.7618 24.2494Z" fill="white"/>
<path d="M21.1559 18.3244C18.9959 18.3244 17.2374 16.5659 17.2374 14.4059C17.2374 12.2453 18.9959 10.4874 21.1559 10.4874C23.3165 10.4874 25.0743 12.2453 25.0743 14.4059C25.0743 16.5659 23.3165 18.3244 21.1559 18.3244ZM21.1559 12.9639C20.3613 12.9639 19.7138 13.6106 19.7138 14.4059C19.7138 15.2012 20.3613 15.8479 21.1559 15.8479C21.9512 15.8479 22.5979 15.2012 22.5979 14.4059C22.5979 13.6106 21.9512 12.9639 21.1559 12.9639Z" fill="white"/>
<path d="M9.11658 18.2864C6.95593 18.2864 5.19812 16.5285 5.19812 14.3679C5.19812 12.2073 6.95593 10.4494 9.11658 10.4494C11.2772 10.4494 13.035 12.2073 13.035 14.3679C13.035 16.5285 11.2772 18.2864 9.11658 18.2864ZM9.11658 12.9259C8.32197 12.9259 7.67453 13.5733 7.67453 14.3679C7.67453 15.1632 8.32197 15.8099 9.11658 15.8099C9.91188 15.8099 10.5586 15.1632 10.5586 14.3679C10.5586 13.5733 9.91188 12.9259 9.11658 12.9259Z" fill="white"/>
<path d="M33.1954 18.3617C31.0354 18.3617 29.2776 16.6039 29.2776 14.4432C29.2776 12.2833 31.0354 10.5255 33.1954 10.5255C35.356 10.5255 37.1138 12.2833 37.1138 14.4432C37.1138 16.6039 35.356 18.3617 33.1954 18.3617ZM33.1954 13.0012C32.4007 13.0012 31.754 13.6479 31.754 14.4432C31.754 15.2385 32.4007 15.8853 33.1954 15.8853C33.9907 15.8853 34.6374 15.2385 34.6374 14.4432C34.6374 13.6479 33.9907 13.0012 33.1954 13.0012Z" fill="white"/>
</svg>
