<svg width="1124" height="1360" viewBox="0 0 1124 1360" fill="none" xmlns="http://www.w3.org/2000/svg">
<g opacity="0.7">
<g clip-path="url(#clip0_154_3)">
<path d="M244.253 515.4L232.632 474.388C237.878 462.929 240.537 450.683 240.537 437.974C240.537 394.765 208.497 357.648 165.89 351.306C150.919 339.389 131.99 332.243 111.412 332.243C63.084 332.243 23.7662 371.561 23.7662 419.889C23.7662 432.6 26.4248 444.846 31.6714 456.304L20.0491 497.317C19.273 500.061 20.1172 502.938 22.2543 504.826C24.3922 506.717 27.3533 507.204 29.9795 506.09L62.2561 492.46C73.1671 499.868 85.4453 504.649 98.363 506.573C113.802 518.853 133.124 525.619 152.891 525.619C170.555 525.619 187.513 520.413 202.047 510.544L234.322 524.174C236.948 525.28 239.907 524.799 242.048 522.911C244.185 521.024 245.03 518.146 244.253 515.4V515.4ZM62.613 485.975C62.2126 485.975 61.8109 486.054 61.4312 486.214L27.615 500.494C27.1264 500.702 26.6746 500.628 26.2773 500.275C25.8778 499.922 25.7492 499.483 25.8936 498.973L37.8241 456.873C38.0238 456.166 37.9615 455.41 37.6463 454.745C32.4669 443.807 29.8407 432.079 29.8407 419.889C29.8407 374.91 66.4337 338.317 111.412 338.317C156.39 338.317 192.983 374.91 192.983 419.889C192.983 464.867 156.391 501.46 111.412 501.46C94.4423 501.46 78.1744 496.299 64.3673 486.533C63.8462 486.164 63.232 485.975 62.613 485.975V485.975ZM238.026 518.359C237.627 518.711 237.176 518.783 236.686 518.578L202.871 504.298C201.904 503.891 200.794 504.009 199.935 504.616C186.128 514.382 169.861 519.544 152.89 519.544C137.821 519.544 123.027 515.322 110.27 507.514C110.651 507.519 111.03 507.535 111.412 507.535C159.74 507.535 199.058 468.217 199.058 419.889C199.058 396.438 189.782 375.125 174.729 359.38C209.425 369.036 234.461 401.124 234.461 437.974C234.461 450.164 231.835 461.89 226.656 472.829C226.34 473.494 226.278 474.25 226.478 474.957L238.406 517.056C238.553 517.568 238.424 518.007 238.026 518.359V518.359ZM75.6651 406.453C68.2959 406.453 62.2995 412.449 62.2995 419.819C62.2995 427.188 68.2955 433.184 75.6651 433.184C83.0347 433.184 89.0306 427.188 89.0306 419.819C89.0306 412.449 83.0342 406.453 75.6651 406.453ZM75.6651 427.109C71.6447 427.109 68.3749 423.839 68.3749 419.819C68.3749 415.798 71.6447 412.529 75.6651 412.529C79.6855 412.529 82.9552 415.798 82.9552 419.819C82.9552 423.839 79.6855 427.109 75.6651 427.109ZM122.776 419.819C122.776 412.45 116.78 406.453 109.411 406.453C102.041 406.453 96.0451 412.449 96.0451 419.819C96.0451 427.188 102.041 433.184 109.411 433.184C116.78 433.184 122.776 427.188 122.776 419.819ZM109.411 427.109C105.391 427.109 102.121 423.839 102.121 419.819C102.121 415.798 105.391 412.529 109.411 412.529C113.431 412.529 116.701 415.798 116.701 419.819C116.701 423.839 113.431 427.109 109.411 427.109ZM143.156 433.184C150.525 433.184 156.522 427.188 156.522 419.818C156.522 412.449 150.526 406.453 143.156 406.453C135.787 406.453 129.791 412.449 129.791 419.818C129.791 427.188 135.787 433.184 143.156 433.184ZM143.156 412.528C147.177 412.528 150.446 415.798 150.446 419.818C150.446 423.839 147.177 427.108 143.156 427.108C139.136 427.108 135.866 423.839 135.866 419.818C135.866 415.798 139.136 412.528 143.156 412.528Z" fill="white" fill-opacity="0.8"/>
</g>
<g filter="url(#filter0_b_154_3)">
<path d="M0 317H256V547H0V317Z" fill="black" fill-opacity="0.3"/>
</g>
</g>
<g opacity="0.7">
<g clip-path="url(#clip1_154_3)">
<path d="M775.583 178.219L743.702 146.339L759.338 130.704C760.692 129.35 761.249 127.39 760.809 125.526C760.369 123.661 758.995 122.157 757.177 121.552L663.367 90.2813C661.381 89.6191 659.19 90.1361 657.71 91.6168C656.229 93.0976 655.712 95.2873 656.375 97.2737L687.645 191.084C688.251 192.902 689.755 194.276 691.619 194.716C693.483 195.157 695.443 194.6 696.798 193.245L712.433 177.61L744.313 209.49C745.393 210.569 746.807 211.109 748.222 211.109C749.636 211.109 751.051 210.569 752.13 209.49L775.583 186.037C777.742 183.878 777.742 180.378 775.583 178.219ZM748.221 197.763L716.341 165.884C714.183 163.725 710.682 163.725 708.524 165.884L695.305 179.103L670.359 104.266L745.196 129.212L731.976 142.431C729.82 144.587 729.818 148.09 731.976 150.248L763.857 182.128L748.221 197.763Z" fill="white" fill-opacity="0.8"/>
<path d="M660.38 66.6481C663.433 66.6481 665.908 64.1731 665.908 61.1202V27.9532C665.908 24.9004 663.433 22.4254 660.38 22.4254C657.328 22.4254 654.853 24.9004 654.853 27.9532V61.1202C654.853 64.1731 657.328 66.6481 660.38 66.6481Z" fill="white" fill-opacity="0.8"/>
<path d="M617.384 43.4732C615.226 41.3144 611.725 41.3144 609.566 43.4732C607.408 45.632 607.408 49.1319 609.566 51.2907L633.019 74.7434C635.178 76.9022 638.678 76.9022 640.837 74.7434C642.995 72.5846 642.995 69.0848 640.837 66.926L617.384 43.4732Z" fill="white" fill-opacity="0.8"/>
<path d="M633.019 113.831L609.566 137.284C607.408 139.443 607.408 142.942 609.566 145.101C611.725 147.26 615.226 147.26 617.384 145.101L640.837 121.648C642.995 119.49 642.995 115.99 640.837 113.831C638.678 111.672 635.178 111.672 633.019 113.831Z" fill="white" fill-opacity="0.8"/>
<path d="M687.742 74.7434L711.194 51.2907C713.353 49.1319 713.353 45.632 711.194 43.4732C709.036 41.3144 705.536 41.3144 703.377 43.4732L679.924 66.926C677.765 69.0848 677.765 72.5846 679.924 74.7434C682.083 76.9022 685.583 76.9022 687.742 74.7434Z" fill="white" fill-opacity="0.8"/>
<path d="M632.741 94.2872C632.741 91.2344 630.266 88.7594 627.213 88.7594H594.047C590.994 88.7594 588.519 91.2344 588.519 94.2872C588.519 97.3401 590.994 99.8151 594.047 99.8151H627.213C630.266 99.8151 632.741 97.3401 632.741 94.2872Z" fill="white" fill-opacity="0.8"/>
</g>
<g filter="url(#filter1_b_154_3)">
<path d="M563 0H836.745V249H563V0Z" fill="black" fill-opacity="0.2"/>
</g>
</g>
<g opacity="0.7">
<g clip-path="url(#clip2_154_3)">
<path d="M898.464 538.924H910.892L905.624 533.826C901.002 529.352 893.628 529.474 889.155 534.096C885.812 537.551 885.037 542.541 886.787 546.71C888.697 542.142 893.212 538.924 898.464 538.924Z" fill="white" fill-opacity="0.8"/>
<path d="M1007.66 591.921L978.803 579.174C975.99 577.932 973.028 577.483 970.166 577.727C969.819 580.4 968.635 582.983 966.586 585.031L965.286 586.331H967.124C974.1 586.331 979.775 592.006 979.775 598.982V611.077L966.64 636.497L925.362 652.943C919.386 655.323 916.472 662.098 918.853 668.074C921.237 674.06 928.018 676.96 933.984 674.583L979.114 656.602C981.606 655.61 983.678 653.787 984.982 651.443L1002.8 619.406L992.146 655.428C990.074 662.436 983.503 663.426 982.148 664.218L937.018 682.199C930.735 684.702 923.937 683.767 918.697 680.294H915.188L901.461 721.114C901.093 722.206 900.857 723.339 900.757 724.488L894.586 795.171C893.847 803.639 900.507 810.997 909.106 810.997C916.574 810.997 922.932 805.283 923.594 797.703L929.613 728.749L945.053 682.836L951.283 685.587L948.957 732.251C948.839 734.608 949.296 736.959 950.289 739.1L979.715 802.561C983.103 809.868 991.764 813.022 999.047 809.645C1006.34 806.262 1009.51 797.607 1006.13 790.313L978.217 730.111L979.809 698.186L980.026 698.282L1016.7 615.251C1020.65 606.314 1016.6 595.868 1007.66 591.921V591.921Z" fill="white" fill-opacity="0.8"/>
<path d="M1035.21 565.724C1041.06 552.49 1035.06 537.024 1021.83 531.181C1008.59 525.338 993.129 531.329 987.286 544.564C981.443 557.798 987.434 573.263 1000.67 579.107C1013.9 584.95 1029.37 578.958 1035.21 565.724Z" fill="white" fill-opacity="0.8"/>
<path d="M957.472 624.731H967.125C967.302 624.731 967.475 624.718 967.647 624.698L971.62 620.237C971.62 620.236 971.62 620.236 971.62 620.235V598.984C971.62 596.501 969.607 594.488 967.125 594.488H957.472C956.561 591.568 955.382 588.768 953.983 586.102L960.819 579.266C962.574 577.511 962.574 574.664 960.819 572.908L945.792 557.881C944.914 557.003 943.763 556.564 942.613 556.564C941.462 556.564 940.312 557.003 939.435 557.881L932.598 564.716C929.932 563.317 927.132 562.139 924.212 561.227V551.575C924.212 549.093 922.2 547.08 919.717 547.08H898.464C895.981 547.08 893.969 549.092 893.969 551.575V561.227C891.049 562.139 888.249 563.317 885.583 564.716L878.747 557.881C877.869 557.003 876.719 556.564 875.568 556.564C874.418 556.564 873.267 557.003 872.39 557.881L857.363 572.908C855.607 574.664 855.607 577.51 857.363 579.266L864.198 586.101C862.799 588.767 861.621 591.568 860.709 594.488H851.057C848.573 594.488 846.561 596.501 846.561 598.983V620.235C846.561 622.718 848.574 624.73 851.057 624.73H860.709C861.62 627.65 862.799 630.45 864.198 633.116L857.362 639.952C855.607 641.707 855.607 644.554 857.362 646.309L872.389 661.337C873.267 662.215 874.418 662.654 875.568 662.654C876.719 662.654 877.869 662.215 878.747 661.337L885.582 654.501C888.248 655.9 891.049 657.078 893.968 657.99V667.642C893.968 670.125 895.981 672.137 898.464 672.137H911.682C911.526 671.8 911.376 671.458 911.236 671.108C907.179 660.926 912.145 649.383 922.326 645.326L954.232 632.615C955.519 630.099 956.617 627.47 957.472 624.731V624.731ZM909.091 639.647C892.5 639.647 879.052 626.199 879.052 609.609C879.052 593.019 892.5 579.57 909.091 579.57C925.681 579.57 939.129 593.019 939.129 609.609C939.129 626.199 925.68 639.647 909.091 639.647Z" fill="white" fill-opacity="0.8"/>
</g>
<g filter="url(#filter2_b_154_3)">
<path d="M829 504H1057V835H829V504Z" fill="black" fill-opacity="0.6"/>
</g>
</g>
<g opacity="0.7">
<g clip-path="url(#clip3_154_3)">
<path d="M1004.38 1121.22C1003.28 1117.96 1000.98 1115.31 997.896 1113.77C994.811 1112.23 991.311 1111.99 988.044 1113.08C984.775 1114.18 982.127 1116.48 980.589 1119.56C979.051 1122.65 978.808 1126.15 979.902 1129.41L989.769 1158.89C990.862 1162.16 993.165 1164.81 996.249 1166.35C999.334 1167.89 1002.83 1168.13 1006.1 1167.04L1069.09 1145.95C1072.36 1144.86 1075 1142.56 1076.54 1139.48C1078.08 1136.39 1078.32 1132.89 1077.23 1129.62C1076.14 1126.35 1073.83 1123.71 1070.75 1122.17C1067.66 1120.63 1064.17 1120.39 1060.9 1121.48L1053.95 1123.81C1051.83 1119.47 1049.11 1115.49 1045.87 1111.98L1048.49 1106.73C1051.66 1100.36 1049.07 1092.6 1042.7 1089.42L1006.49 1071.37L1008.48 1067.36C1012.54 1059.22 1009.22 1049.3 1001.08 1045.25L960.698 1025.12C952.561 1021.06 942.639 1024.38 938.583 1032.52L930.271 1049.19C928.017 1053.71 929.862 1059.23 934.383 1061.48L987.885 1088.15C992.406 1090.4 997.919 1088.56 1000.17 1084.04L1002.98 1078.4L1039.19 1096.45C1041.69 1097.69 1042.7 1100.73 1041.46 1103.23L1039.85 1106.46C1037.25 1104.43 1034.44 1102.65 1031.45 1101.16C1006.83 1088.89 976.824 1098.93 964.555 1123.54C952.286 1148.16 962.329 1178.16 986.943 1190.43C989.945 1191.93 993.056 1193.1 996.23 1193.96L942.931 1300.89C941.689 1303.38 938.65 1304.4 936.158 1303.15L793.832 1232.21C791.34 1230.96 790.323 1227.93 791.566 1225.44L890.095 1027.77C891.338 1025.28 894.376 1024.26 896.868 1025.5L920.228 1037.15C922.169 1038.12 924.527 1037.33 925.494 1035.39C926.462 1033.45 925.673 1031.09 923.732 1030.12L900.372 1018.48C894.005 1015.3 886.242 1017.9 883.067 1024.27L784.537 1221.93C781.364 1228.3 783.962 1236.06 790.329 1239.24L932.656 1310.18C939.023 1313.36 946.786 1310.76 949.96 1304.39L1004.27 1195.43C1010.93 1196.1 1017.71 1195.42 1024.25 1193.34C1036.63 1189.42 1046.85 1180.99 1053.03 1169.59C1054.06 1167.69 1053.36 1165.3 1051.45 1164.27C1049.56 1163.24 1047.16 1163.94 1046.13 1165.85C1037.43 1181.89 1019.98 1190.02 1002.9 1187.37C1002.67 1187.32 1002.44 1187.28 1002.22 1187.27C998.227 1186.59 994.265 1185.31 990.446 1183.41C969.708 1173.07 961.246 1147.78 971.583 1127.05C981.921 1106.31 1007.2 1097.85 1027.94 1108.18C1035.91 1112.15 1042.35 1118.51 1046.43 1126.32L1010.15 1138.47L1004.38 1121.22ZM993.144 1080.53C992.822 1081.18 992.036 1081.44 991.389 1081.12L937.887 1054.45C937.24 1054.13 936.977 1053.34 937.299 1052.7L945.611 1036.02C947.737 1031.76 952.931 1030.02 957.195 1032.14L997.579 1052.28C1001.84 1054.4 1003.58 1059.6 1001.46 1063.86L993.144 1080.53ZM1063.39 1128.93C1064.67 1128.5 1066.04 1128.6 1067.25 1129.2C1068.45 1129.8 1069.35 1130.84 1069.78 1132.12C1070.67 1134.76 1069.24 1137.62 1066.6 1138.51L1003.61 1159.59C1002.33 1160.02 1000.96 1159.92 999.75 1159.32C998.542 1158.72 997.642 1157.68 997.214 1156.4L987.347 1126.92C986.919 1125.64 987.015 1124.27 987.617 1123.07C988.22 1121.86 989.255 1120.96 990.536 1120.53C991.814 1120.1 993.184 1120.2 994.392 1120.8C995.598 1121.4 996.5 1122.44 996.928 1123.72L1003.95 1144.68C1004.63 1146.74 1006.86 1147.85 1008.91 1147.16L1063.39 1128.93Z" fill="white" fill-opacity="0.8"/>
<path d="M949.852 1129.83L907.033 1108.49C905.092 1107.52 902.736 1108.31 901.769 1110.25C900.802 1112.19 901.589 1114.55 903.53 1115.52L946.349 1136.86C948.29 1137.83 950.647 1137.04 951.614 1135.1C952.581 1133.16 951.792 1130.8 949.852 1129.83Z" fill="white" fill-opacity="0.8"/>
<path d="M918.407 1068.87L894.762 1057.09C892.821 1056.12 890.463 1056.91 889.496 1058.85C888.528 1060.79 889.318 1063.15 891.258 1064.12L914.904 1075.9C916.844 1076.87 919.202 1076.08 920.17 1074.14C921.137 1072.2 920.348 1069.84 918.407 1068.87Z" fill="white" fill-opacity="0.8"/>
<path d="M895.404 1131.82L938.223 1153.16C940.163 1154.13 942.521 1153.34 943.489 1151.4C944.455 1149.46 943.666 1147.1 941.725 1146.14L898.906 1124.79C896.966 1123.83 894.61 1124.62 893.643 1126.55C892.676 1128.5 893.463 1130.85 895.404 1131.82Z" fill="white" fill-opacity="0.8"/>
<path d="M943.398 1179.83L885.788 1151.11C883.847 1150.14 881.491 1150.93 880.524 1152.87C879.556 1154.81 880.344 1157.17 882.284 1158.14L939.895 1186.86C941.835 1187.82 944.193 1187.03 945.161 1185.09C946.128 1183.15 945.339 1180.79 943.398 1179.83Z" fill="white" fill-opacity="0.8"/>
<path d="M874.158 1174.44L902.964 1188.8C904.905 1189.77 907.261 1188.98 908.228 1187.04C909.195 1185.1 908.408 1182.74 906.467 1181.77L877.661 1167.41C875.721 1166.45 873.365 1167.24 872.397 1169.18C871.43 1171.12 872.217 1173.47 874.158 1174.44Z" fill="white" fill-opacity="0.8"/>
<path d="M861.017 1200.8L903.836 1222.15C905.776 1223.12 908.134 1222.33 909.102 1220.39C910.069 1218.44 909.28 1216.09 907.339 1215.12L864.52 1193.78C862.579 1192.81 860.223 1193.6 859.256 1195.54C858.289 1197.48 859.076 1199.84 861.017 1200.8Z" fill="white" fill-opacity="0.8"/>
<path d="M852.891 1217.1L910.501 1245.82C912.442 1246.79 914.8 1246 915.767 1244.06C916.734 1242.12 915.945 1239.76 914.004 1238.8L856.394 1210.08C854.453 1209.11 852.097 1209.9 851.131 1211.84C850.163 1213.78 850.95 1216.14 852.891 1217.1Z" fill="white" fill-opacity="0.8"/>
<path d="M885.657 1094.03C877.83 1090.13 868.289 1093.32 864.388 1101.15C860.486 1108.98 863.679 1118.52 871.506 1122.42C879.333 1126.32 888.874 1123.13 892.775 1115.3C896.677 1107.47 893.484 1097.93 885.657 1094.03ZM875.01 1115.39C871.059 1113.42 869.447 1108.6 871.416 1104.65C873.386 1100.7 878.203 1099.09 882.153 1101.06C886.104 1103.03 887.717 1107.85 885.747 1111.8C883.778 1115.75 878.961 1117.36 875.01 1115.39Z" fill="white" fill-opacity="0.8"/>
<path d="M864.154 1137.17C856.327 1133.27 846.786 1136.46 842.885 1144.29C838.984 1152.11 842.177 1161.65 850.004 1165.56C857.831 1169.46 867.371 1166.26 871.273 1158.44C875.174 1150.61 871.981 1141.07 864.154 1137.17V1137.17ZM853.506 1158.53C849.555 1156.56 847.943 1151.74 849.913 1147.79C851.883 1143.84 856.7 1142.23 860.651 1144.2C864.602 1146.17 866.214 1150.98 864.244 1154.94C862.274 1158.89 857.457 1160.5 853.506 1158.53Z" fill="white" fill-opacity="0.8"/>
<path d="M842.887 1179.83C835.06 1175.93 825.519 1179.13 821.618 1186.95C817.716 1194.78 820.909 1204.32 828.736 1208.22C836.563 1212.12 846.104 1208.93 850.005 1201.1C853.907 1193.28 850.714 1183.74 842.887 1179.83V1179.83ZM832.24 1201.19C828.289 1199.22 826.677 1194.41 828.646 1190.46C830.615 1186.51 835.432 1184.89 839.383 1186.86C843.334 1188.83 844.946 1193.65 842.977 1197.6C841.007 1201.55 836.191 1203.16 832.24 1201.19V1201.19Z" fill="white" fill-opacity="0.8"/>
</g>
<g filter="url(#filter3_b_154_3)">
<path d="M869.39 965L1123.89 1091.86L990.498 1359.46L736 1232.6L869.39 965Z" fill="black" fill-opacity="0.5"/>
</g>
</g>
<g opacity="0.7">
<g clip-path="url(#clip4_154_3)">
<path d="M124.328 1113.58C123.452 1113.58 122.569 1113.28 121.849 1112.67L97.0636 1091.56C96.2086 1090.83 95.717 1089.77 95.717 1088.65C95.717 1087.52 96.2108 1086.46 97.0636 1085.73L121.849 1064.63C123.458 1063.25 125.876 1063.45 127.248 1065.06C128.618 1066.67 128.425 1069.09 126.814 1070.46L105.455 1088.65L126.814 1106.83C128.425 1108.21 128.618 1110.62 127.248 1112.23C126.489 1113.12 125.412 1113.58 124.328 1113.58Z" fill="white" fill-opacity="0.8"/>
<path d="M173.257 1113.58C172.173 1113.58 171.096 1113.12 170.339 1112.23C168.967 1110.62 169.162 1108.21 170.771 1106.83L192.13 1088.65L170.771 1070.46C169.162 1069.09 168.967 1066.67 170.339 1065.06C171.71 1063.45 174.129 1063.25 175.736 1064.63L200.521 1085.73C201.376 1086.46 201.868 1087.52 201.868 1088.65C201.868 1089.77 201.376 1090.83 200.521 1091.56L175.736 1112.67C175.016 1113.28 174.133 1113.58 173.257 1113.58V1113.58Z" fill="white" fill-opacity="0.8"/>
<path d="M140.018 1129.41C139.756 1129.41 139.491 1129.38 139.223 1129.33C137.154 1128.89 135.829 1126.86 136.265 1124.79L151.712 1051.45C152.148 1049.38 154.179 1048.06 156.25 1048.49C158.319 1048.93 159.644 1050.96 159.208 1053.03L143.761 1126.37C143.381 1128.17 141.79 1129.41 140.018 1129.41V1129.41Z" fill="white" fill-opacity="0.8"/>
<path d="M239.075 1169.37H58.5095C44.3301 1169.37 32.7925 1157.83 32.7925 1143.65V990.396C32.7925 976.217 44.3301 964.679 58.5095 964.679H239.075C253.255 964.679 264.792 976.217 264.792 990.396V1143.65C264.792 1157.83 253.255 1169.37 239.075 1169.37ZM58.5095 972.34C48.5535 972.34 40.4529 980.44 40.4529 990.396V1143.65C40.4529 1153.61 48.5535 1161.71 58.5095 1161.71H239.075C249.031 1161.71 257.132 1153.61 257.132 1143.65V990.396C257.132 980.44 249.031 972.34 239.075 972.34H58.5095Z" fill="white" fill-opacity="0.8"/>
<path d="M260.962 1026.01H36.6227C34.5067 1026.01 32.7925 1024.3 32.7925 1022.18C32.7925 1020.07 34.5067 1018.35 36.6227 1018.35H260.962C263.078 1018.35 264.792 1020.07 264.792 1022.18C264.792 1024.3 263.078 1026.01 260.962 1026.01Z" fill="white" fill-opacity="0.8"/>
<path d="M98.2349 1007.68C91.5534 1007.68 86.1138 1002.24 86.1138 995.562C86.1138 988.879 91.5534 983.441 98.2349 983.441C104.918 983.441 110.356 988.879 110.356 995.562C110.356 1002.24 104.918 1007.68 98.2349 1007.68ZM98.2349 991.102C95.7769 991.102 93.7741 993.102 93.7741 995.562C93.7741 998.022 95.7769 1000.02 98.2349 1000.02C100.695 1000.02 102.696 998.022 102.696 995.562C102.696 993.102 100.695 991.102 98.2349 991.102Z" fill="white" fill-opacity="0.8"/>
<path d="M60.993 1007.57C54.3094 1007.57 48.8719 1002.13 48.8719 995.445C48.8719 988.761 54.3094 983.324 60.993 983.324C67.6766 983.324 73.1141 988.761 73.1141 995.445C73.1141 1002.13 67.6766 1007.57 60.993 1007.57ZM60.993 990.984C58.5351 990.984 56.5323 992.987 56.5323 995.445C56.5323 997.905 58.5351 999.906 60.993 999.906C63.4532 999.906 65.4538 997.905 65.4538 995.445C65.4538 992.987 63.4532 990.984 60.993 990.984Z" fill="white" fill-opacity="0.8"/>
<path d="M135.477 1007.8C128.795 1007.8 123.358 1002.36 123.358 995.678C123.358 988.996 128.795 983.559 135.477 983.559C142.16 983.559 147.598 988.996 147.598 995.678C147.598 1002.36 142.16 1007.8 135.477 1007.8ZM135.477 991.217C133.019 991.217 131.018 993.218 131.018 995.678C131.018 998.138 133.019 1000.14 135.477 1000.14C137.937 1000.14 139.937 998.138 139.937 995.678C139.937 993.218 137.937 991.217 135.477 991.217Z" fill="white" fill-opacity="0.8"/>
</g>
<g filter="url(#filter4_b_154_3)">
<path d="M12 951H275.736V1183H12V951Z" fill="black" fill-opacity="0.3"/>
</g>
</g>
<defs>
<filter id="filter0_b_154_3" x="-10" y="307" width="276" height="250" filterUnits="userSpaceOnUse" color-interpolation-filters="sRGB">
<feFlood flood-opacity="0" result="BackgroundImageFix"/>
<feGaussianBlur in="BackgroundImage" stdDeviation="5"/>
<feComposite in2="SourceAlpha" operator="in" result="effect1_backgroundBlur_154_3"/>
<feBlend mode="normal" in="SourceGraphic" in2="effect1_backgroundBlur_154_3" result="shape"/>
</filter>
<filter id="filter1_b_154_3" x="533" y="-30" width="333.745" height="309" filterUnits="userSpaceOnUse" color-interpolation-filters="sRGB">
<feFlood flood-opacity="0" result="BackgroundImageFix"/>
<feGaussianBlur in="BackgroundImage" stdDeviation="15"/>
<feComposite in2="SourceAlpha" operator="in" result="effect1_backgroundBlur_154_3"/>
<feBlend mode="normal" in="SourceGraphic" in2="effect1_backgroundBlur_154_3" result="shape"/>
</filter>
<filter id="filter2_b_154_3" x="809" y="484" width="268" height="371" filterUnits="userSpaceOnUse" color-interpolation-filters="sRGB">
<feFlood flood-opacity="0" result="BackgroundImageFix"/>
<feGaussianBlur in="BackgroundImage" stdDeviation="10"/>
<feComposite in2="SourceAlpha" operator="in" result="effect1_backgroundBlur_154_3"/>
<feBlend mode="normal" in="SourceGraphic" in2="effect1_backgroundBlur_154_3" result="shape"/>
</filter>
<filter id="filter3_b_154_3" x="726" y="955" width="407.888" height="414.457" filterUnits="userSpaceOnUse" color-interpolation-filters="sRGB">
<feFlood flood-opacity="0" result="BackgroundImageFix"/>
<feGaussianBlur in="BackgroundImage" stdDeviation="5"/>
<feComposite in2="SourceAlpha" operator="in" result="effect1_backgroundBlur_154_3"/>
<feBlend mode="normal" in="SourceGraphic" in2="effect1_backgroundBlur_154_3" result="shape"/>
</filter>
<filter id="filter4_b_154_3" x="2" y="941" width="283.736" height="252" filterUnits="userSpaceOnUse" color-interpolation-filters="sRGB">
<feFlood flood-opacity="0" result="BackgroundImageFix"/>
<feGaussianBlur in="BackgroundImage" stdDeviation="5"/>
<feComposite in2="SourceAlpha" operator="in" result="effect1_backgroundBlur_154_3"/>
<feBlend mode="normal" in="SourceGraphic" in2="effect1_backgroundBlur_154_3" result="shape"/>
</filter>
<clipPath id="clip0_154_3">
<rect width="224.771" height="224.771" fill="white" transform="translate(19.7655 316.545)"/>
</clipPath>
<clipPath id="clip1_154_3">
<rect width="188.683" height="188.683" fill="white" transform="translate(588.519 22.4254)"/>
</clipPath>
<clipPath id="clip2_154_3">
<rect width="282" height="282" fill="white" transform="translate(801 529)"/>
</clipPath>
<clipPath id="clip3_154_3">
<rect width="267.636" height="267.636" fill="white" transform="translate(878.531 984.158) rotate(26.4951)"/>
</clipPath>
<clipPath id="clip4_154_3">
<rect width="232" height="232" fill="white" transform="translate(32.7925 951)"/>
</clipPath>
</defs>
</svg>
